<svg width="72" height="72" viewBox="0 0 72 72" fill="none" xmlns="http://www.w3.org/2000/svg">
<g clip-path="url(#clip0_40_6)">
<path d="M18.23 67.48C36.23 68.3 50.29 61.48 58.23 44.94C65.94 28.75 62.54 13.66 51.37 0C61.24 5.23 67.81 13.3 70.31 24.2C74 40 69.29 53.41 56.47 63.28C44.79 72.28 31.75 73.35 18.23 67.48Z" fill="white"/>
<path d="M57.43 10.07C55.81 9.26 41.55 2.51 26.61 9.97C13.61 16.46 9.66003 28.97 9.02003 31.06C7.02003 27.76 6.62003 24.19 6.02003 20.62C5.42003 17.05 6.49003 14.62 8.84003 12.14C13.8917 6.62441 20.477 2.74498 27.75 0.999999C43.41 -2 55.85 8.67 57.43 10.07Z" fill="white"/>
<path d="M5.73002 15.53C0.910021 36.8 11.73 56.12 31.06 63.39C27.76 65.39 24.19 65.79 20.62 66.39C17.05 66.99 14.62 65.92 12.14 63.56C-1.11998 51.13 -3.91998 31.79 5.73002 15.53Z" fill="white"/>
<path d="M51.21 28.25C52.1324 28.25 52.88 27.5023 52.88 26.58C52.88 25.6577 52.1324 24.91 51.21 24.91C50.2877 24.91 49.54 25.6577 49.54 26.58C49.54 27.5023 50.2877 28.25 51.21 28.25Z" fill="white"/>
</g>
<defs>
<clipPath id="clip0_40_6">
<rect width="71.51" height="71.13" fill="white"/>
</clipPath>
</defs>
</svg>
